Coordinates
version=1
nRows=60
nColumns=12
inDegrees=yes

Units are S.I. units (second, meters, Newtons, ...)
Angles are in degrees

endheader
time	SC_y	SC_z	SC_x	AC_y	AC_z	AC_x	GH_y	GH_z	GH_yy	EL_x	PS_y
       0.0              -28.46          24.49          32.26          37.28          -5.98         -12.01         -170.4          60.88         -52.74          129.2          88.84
 0.0003182              -28.46          24.49          32.26          37.29          -5.98         -12.01         -170.4          60.88         -52.73          129.2          88.84
 0.0006364              -28.46          24.49          32.26          37.29          -5.98         -12.02         -170.4          60.88         -52.71          129.1          88.84
 0.0009546              -28.46          24.49          32.26          37.29          -5.98         -12.02         -170.4          60.87         -52.69          129.1          88.85
  0.001273              -28.47          24.49          32.27          37.29          -5.98         -12.02         -170.4          60.87         -52.67          129.1          88.85
  0.001591              -28.47          24.49          32.27           37.3          -5.98         -12.02         -170.3          60.87         -52.65          129.1          88.85
  0.001909              -28.47          24.49          32.27           37.3          -5.98         -12.02         -170.3          60.86         -52.62          129.1          88.85
  0.002227              -28.47          24.49          32.27           37.3          -5.98         -12.02         -170.3          60.86          -52.6          129.1          88.85
  0.002546              -28.48          24.49          32.27          37.31          -5.98         -12.02         -170.2          60.86         -52.57          129.0          88.85
  0.002864              -28.48          24.49          32.27          37.31         -5.981         -12.02         -170.2          60.85         -52.54          129.0          88.86
  0.003182              -28.48          24.49          32.27          37.31         -5.981         -12.02         -170.2          60.85         -52.51          129.0          88.86
    0.0035              -28.49           24.5          32.27          37.32         -5.981         -12.02         -170.1          60.85         -52.47          129.0          88.86
  0.003818              -28.49           24.5          32.27          37.32         -5.981         -12.02         -170.1          60.84         -52.44          128.9          88.87
  0.004136               -28.5           24.5          32.28          37.33         -5.981         -12.02         -170.0          60.84          -52.4          128.9          88.87
  0.004455               -28.5           24.5          32.28          37.33         -5.982         -12.02         -170.0          60.83         -52.35          128.9          88.87
  0.004773              -28.51           24.5          32.28          37.34         -5.982         -12.02         -169.9          60.82         -52.31          128.8          88.88
  0.005091              -28.51           24.5          32.28          37.35         -5.982         -12.03         -169.9          60.82         -52.26          128.8          88.88
  0.005409              -28.52          24.51          32.28          37.35         -5.982         -12.03         -169.8          60.81          -52.2          128.8          88.88
  0.005727              -28.53          24.51          32.28          37.36         -5.983         -12.03         -169.7           60.8         -52.14          128.7          88.89
  0.006046              -28.53          24.51          32.29          37.37         -5.983         -12.03         -169.7           60.8         -52.08          128.7          88.89
  0.006364              -28.54          24.51          32.29          37.38         -5.983         -12.03         -169.6          60.79          -52.0          128.6           88.9
  0.006682              -28.55          24.52          32.29          37.39         -5.984         -12.03         -169.5          60.78         -51.92          128.6          88.91
     0.007              -28.56          24.52           32.3           37.4         -5.984         -12.03         -169.4          60.76         -51.84          128.5          88.91
  0.007318              -28.57          24.52           32.3          37.41         -5.985         -12.04         -169.3          60.75         -51.74          128.4          88.92
  0.007637              -28.58          24.53           32.3          37.43         -5.985         -12.04         -169.1          60.74         -51.63          128.3          88.93
  0.007955               -28.6          24.53          32.31          37.44         -5.986         -12.04         -169.0          60.72         -51.51          128.3          88.94
  0.008273              -28.61          24.54          32.31          37.46         -5.987         -12.04         -168.8          60.71         -51.37          128.1          88.95
  0.008591              -28.63          24.54          32.32          37.48         -5.988         -12.05         -168.7          60.69         -51.22          128.0          88.96
  0.008909              -28.65          24.55          32.32           37.5         -5.988         -12.05         -168.5          60.67         -51.05          127.9          88.97
  0.009227              -28.67          24.55          32.33          37.53          -5.99         -12.06         -168.2          60.64         -50.85          127.8          88.99
  0.009546               -28.7          24.56          32.34          37.55         -5.991         -12.06         -168.0          60.61         -50.63          127.6          89.01
  0.009864              -28.73          24.57          32.35          37.59         -5.992         -12.07         -167.7          60.58         -50.38          127.4          89.03
   0.01018              -28.76          24.58          32.36          37.63         -5.994         -12.07         -167.3          60.54         -50.08          127.2          89.05
    0.0105               -28.8           24.6          32.37          37.67         -5.995         -12.08         -166.9           60.5         -49.74          126.9          89.08
   0.01082              -28.85          24.61          32.39          37.72         -5.998         -12.09         -166.4          60.45         -49.34          126.6          89.11
   0.01114               -28.9          24.63           32.4          37.78           -6.0          -12.1         -165.9          60.39         -48.86          126.3          89.15
   0.01145              -28.96          24.65          32.43          37.85         -6.003         -12.11         -165.2          60.32          -48.3          125.9          89.19
   0.01177              -29.04          24.67          32.45          37.94         -6.007         -12.13         -164.4          60.23         -47.63          125.4          89.24
   0.01209              -29.13           24.7          32.48          38.04         -6.011         -12.15         -163.5          60.13         -46.81          124.8          89.31
   0.01241              -29.25          24.74          32.52          38.17         -6.016         -12.17         -162.3           60.0         -45.81          124.0          89.39
   0.01273              -29.39          24.78          32.56          38.33         -6.023         -12.19         -160.9          59.85         -44.58          123.1          89.48
   0.01305              -29.56          24.84          32.62          38.53         -6.031         -12.23         -159.1          59.65         -43.05          122.0           89.6
   0.01336              -29.78          24.91          32.69          38.77         -6.041         -12.27         -156.8          59.41         -41.12          120.5          89.76
   0.01368              -30.06           25.0          32.78          39.09         -6.054         -12.32         -153.9           59.1         -38.66          118.7          89.95
     0.014              -30.42          25.11          32.89          39.49          -6.07         -12.39         -150.2           58.7         -35.52          116.4           90.2
   0.01432              -30.88          25.26          33.04          40.01         -6.092         -12.48         -145.5          58.19         -31.48          113.4          90.51
   0.01464              -31.47          25.45          33.23          40.67         -6.119          -12.6         -139.4          57.54         -26.33          109.5          90.92
   0.01495              -32.21          25.69          33.47           41.5         -6.153         -12.74         -131.8          56.72         -19.85          104.7          91.43
   0.01527               -33.1          25.97          33.76          42.51         -6.195         -12.91         -122.5          55.72         -11.95          98.86          92.05
   0.01559              -34.15          26.31          34.09          43.69         -6.243         -13.12         -111.8          54.56         -2.795          92.06          92.77
   0.01591              -35.28          26.67          34.45          44.96         -6.295         -13.33         -100.2          53.31          7.117           84.7          93.55
   0.01623              -36.41          27.03          34.82          46.23         -6.347         -13.55         -88.53          52.05          17.03          77.34          94.33
   0.01655              -37.45          27.37          35.15           47.4         -6.395         -13.75         -77.78          50.89          26.18          70.54          95.05
   0.01686              -38.35          27.66          35.44          48.41         -6.437         -13.93         -68.51           49.9          34.08          64.67          95.67
   0.01718              -39.09          27.89          35.68          49.25         -6.471         -14.07          -60.9          49.08          40.56          59.85          96.18
    0.0175              -39.67          28.08          35.87          49.91         -6.498         -14.18         -54.85          48.42          45.71          56.03          96.58
   0.01782              -40.13          28.23          36.02          50.42          -6.52         -14.27         -50.11          47.91          49.75          53.03           96.9
   0.01814              -40.49          28.34          36.13          50.83         -6.536         -14.34         -46.42          47.52          52.89          50.69          97.15
   0.01845              -40.77          28.43          36.22          51.14         -6.549          -14.4         -43.54           47.2          55.35          48.87          97.34
   0.01877              -40.99           28.5          36.29          51.39         -6.559         -14.44         -41.27          46.96          57.28          47.43          97.49
